<mxfile host="65bd71144e">
    <diagram id="ebJOfxsVs4zK5OVBZ_ag" name="Page-1">
        <mxGraphModel dx="1830" dy="753" grid="1" gridSize="10" guides="1" tooltips="1" connect="1" arrows="1" fold="1" page="1" pageScale="1" pageWidth="850" pageHeight="1100" math="0" shadow="0">
            <root>
                <mxCell id="0"/>
                <mxCell id="1" parent="0"/>
                <mxCell id="4" style="edgeStyle=orthogonalEdgeStyle;rounded=0;orthogonalLoop=1;jettySize=auto;html=1;exitX=0.5;exitY=1;exitDx=0;exitDy=0;entryX=0.5;entryY=0;entryDx=0;entryDy=0;" edge="1" parent="1" source="2" target="3">
                    <mxGeometry relative="1" as="geometry"/>
                </mxCell>
                <mxCell id="2" value="Javascript&lt;br&gt;Runtime" style="rounded=0;whiteSpace=wrap;html=1;" vertex="1" parent="1">
                    <mxGeometry x="40" y="40" width="120" height="40" as="geometry"/>
                </mxCell>
                <mxCell id="5" style="edgeStyle=orthogonalEdgeStyle;rounded=0;orthogonalLoop=1;jettySize=auto;html=1;exitX=0.5;exitY=1;exitDx=0;exitDy=0;" edge="1" parent="1" source="3">
                    <mxGeometry relative="1" as="geometry">
                        <mxPoint x="100" y="672.7778116861979" as="targetPoint"/>
                    </mxGeometry>
                </mxCell>
                <mxCell id="3" value="getContext('webgl')" style="rounded=1;whiteSpace=wrap;html=1;" vertex="1" parent="1">
                    <mxGeometry x="40" y="100" width="120" height="30" as="geometry"/>
                </mxCell>
                <mxCell id="6" value="WebGL" style="ellipse;whiteSpace=wrap;html=1;" vertex="1" parent="1">
                    <mxGeometry x="210" y="90" width="120" height="50" as="geometry"/>
                </mxCell>
                <mxCell id="7" value="" style="rounded=1;whiteSpace=wrap;html=1;" vertex="1" parent="1">
                    <mxGeometry x="830" y="360" width="120" height="60" as="geometry"/>
                </mxCell>
                <mxCell id="8" value="createShader()" style="rounded=1;whiteSpace=wrap;html=1;" vertex="1" parent="1">
                    <mxGeometry x="210" y="160" width="120" height="30" as="geometry"/>
                </mxCell>
                <mxCell id="9" value="shaderSource()" style="rounded=1;whiteSpace=wrap;html=1;" vertex="1" parent="1">
                    <mxGeometry x="210" y="210" width="120" height="30" as="geometry"/>
                </mxCell>
                <mxCell id="10" value="compileShader()" style="rounded=1;whiteSpace=wrap;html=1;" vertex="1" parent="1">
                    <mxGeometry x="210" y="260" width="120" height="30" as="geometry"/>
                </mxCell>
            </root>
        </mxGraphModel>
    </diagram>
</mxfile>